<?xml version="1.0" encoding="UTF-8" standalone="no"?>
<svg
   xmlns:dc="http://purl.org/dc/elements/1.1/"
   xmlns:cc="http://creativecommons.org/ns#"
   xmlns:rdf="http://www.w3.org/1999/02/22-rdf-syntax-ns#"
   xmlns:svg="http://www.w3.org/2000/svg"
   xmlns="http://www.w3.org/2000/svg"
   xmlns:sodipodi="http://sodipodi.sourceforge.net/DTD/sodipodi-0.dtd"
   xmlns:inkscape="http://www.inkscape.org/namespaces/inkscape"
   viewBox="0 0 64 64"
   id="svg2"
   version="1.1"
   inkscape:version="0.91 r13725"
   sodipodi:docname="presentation.svg"
   width="64"
   height="64">
  <metadata
     id="metadata24">
    <rdf:RDF>
      <cc:Work
         rdf:about="">
        <dc:format>image/svg+xml</dc:format>
        <dc:type
           rdf:resource="http://purl.org/dc/dcmitype/StillImage" />
        <dc:title></dc:title>
      </cc:Work>
    </rdf:RDF>
  </metadata>
  <defs
     id="defs22" />
  <sodipodi:namedview
     pagecolor="#ffffff"
     bordercolor="#666666"
     borderopacity="1"
     objecttolerance="10"
     gridtolerance="10"
     guidetolerance="10"
     inkscape:pageopacity="0"
     inkscape:pageshadow="2"
     inkscape:window-width="2560"
     inkscape:window-height="1588"
     id="namedview20"
     showgrid="false"
     inkscape:zoom="13.906433"
     inkscape:cx="15.038147"
     inkscape:cy="24.89723"
     inkscape:window-x="0"
     inkscape:window-y="60"
     inkscape:window-maximized="1"
     inkscape:current-layer="svg2" />
  <g
     id="g3340"
     transform="matrix(1.3888889,0,0,1.3478261,-1.3333334,-0.34782609)">
    <path
       id="path4"
       style="fill:#f4b400;fill-opacity:1"
       d="M 8,1 C 6.971,1 6,1.971 6,3 l 0,42 c 0,0.971 1.029,2 2,2 l 32,0 c 0.971,0 2,-1.029 2,-2 L 42,14 29,1 Z"
       inkscape:connector-curvature="0" />
    <path
       id="path6"
       style="fill-opacity:0.19599998"
       d="M 29,12 29.063,12.063 29.219,12 29,12 Z m 2,2 11,11 0,-11 -11,0 z"
       inkscape:connector-curvature="0" />
    <path
       id="path8"
       style="fill:#ffffff;fill-opacity:0.39200003"
       d="m 29,1 13,13 -11,0 c -0.971,0 -2,-1.029 -2,-2 L 29,1 Z"
       inkscape:connector-curvature="0" />
    <path
       id="path10"
       style="fill:#ffffff"
       d="m 12,16 7,0 0,5 -7,0 z"
       inkscape:connector-curvature="0" />
    <path
       id="path12"
       style="fill:#ffffff"
       d="m 12,24 7,0 0,5 -7,0 z"
       inkscape:connector-curvature="0" />
    <path
       id="path14"
       style="fill:#ffffff"
       d="m 12,32 24,0 0,2 -24,0 z"
       inkscape:connector-curvature="0" />
    <path
       id="path16"
       style="fill:#ffffff"
       d="m 30,16 0,6 6,0 c 0,-3.314 -2.686,-6 -6,-6 z"
       inkscape:connector-curvature="0" />
    <path
       id="path18"
       style="fill:#ffffff"
       d="m 29,17 c -4,0 -7,2.91 -7,6.5 0,3.59 2.91,6.5 6.5,6.5 3.59,0 6.5,-3 6.5,-7 l -6,0 z"
       inkscape:connector-curvature="0" />
  </g>
</svg>
