<?xml version="1.0" encoding="UTF-8" standalone="no"?>
<svg
   xmlns:dc="http://purl.org/dc/elements/1.1/"
   xmlns:cc="http://creativecommons.org/ns#"
   xmlns:rdf="http://www.w3.org/1999/02/22-rdf-syntax-ns#"
   xmlns:svg="http://www.w3.org/2000/svg"
   xmlns="http://www.w3.org/2000/svg"
   xmlns:sodipodi="http://sodipodi.sourceforge.net/DTD/sodipodi-0.dtd"
   xmlns:inkscape="http://www.inkscape.org/namespaces/inkscape"
   width="50"
   viewBox="0 0 50 62"
   height="62"
   id="svg2"
   version="1.1"
   inkscape:version="0.91 r13725"
   sodipodi:docname="spreadsheet.svg">
  <metadata
     id="metadata18">
    <rdf:RDF>
      <cc:Work
         rdf:about="">
        <dc:format>image/svg+xml</dc:format>
        <dc:type
           rdf:resource="http://purl.org/dc/dcmitype/StillImage" />
        <dc:title></dc:title>
      </cc:Work>
    </rdf:RDF>
  </metadata>
  <defs
     id="defs16" />
  <sodipodi:namedview
     pagecolor="#ffffff"
     bordercolor="#666666"
     borderopacity="1"
     objecttolerance="10"
     gridtolerance="10"
     guidetolerance="10"
     inkscape:pageopacity="0"
     inkscape:pageshadow="2"
     inkscape:window-width="1855"
     inkscape:window-height="1056"
     id="namedview14"
     showgrid="false"
     inkscape:zoom="6.9532167"
     inkscape:cx="26.198599"
     inkscape:cy="14.333416"
     inkscape:window-x="65"
     inkscape:window-y="24"
     inkscape:window-maximized="1"
     inkscape:current-layer="svg2"
     fit-margin-top="0"
     fit-margin-left="0"
     fit-margin-right="0"
     fit-margin-bottom="0" />
  <g
     id="g3337"
     transform="matrix(1.3888889,0,0,1.3478261,-8.3333334,-1.3478261)">
    <path
       id="path4"
       style="fill:#0f9d58;fill-opacity:1"
       d="M 8,1 C 6.971,1 6,1.971 6,3 l 0,42 c 0,0.971 1.029,2 2,2 l 32,0 c 0.971,0 2,-1.029 2,-2 L 42,14 29,1 Z"
       inkscape:connector-curvature="0" />
    <path
       id="path6"
       style="fill-opacity:0.19599998"
       d="M 29,12 29.063,12.063 29.219,12 29,12 Z m 2,2 11,11 0,-11 -11,0 z"
       inkscape:connector-curvature="0" />
    <path
       id="path8"
       style="fill:#ffffff;fill-opacity:0.39200003"
       d="m 29,1 13,13 -11,0 c -0.971,0 -2,-1.029 -2,-2 L 29,1 Z"
       inkscape:connector-curvature="0" />
    <g
       id="g10"
       style="fill:#ffffff"
       transform="matrix(-0.2,0,0,0.22916,49.20536,42.16598)">
      <path
         id="path12"
         style="color:#000000"
         d="m 76.03,-105.45 c 0,30.716 0,60.64 0,87.28 35.1,0 69.64,0 100,0 0,-30.716 0,-60.64 0,-87.28 -34.713,0 -70.24,0 -100,0 z m 10,8.728 45,0 0,17.455 -45,0 z m 55,0 25,0 0,17.455 -25,0 z m -55,26.18 45,0 0,17.455 -45,0 z m 55,0 25,0 0,17.455 -25,0 z m -55,26.18 45,0 0,17.455 -45,0 z m 55,0 25,0 0,17.455 -25,0 z"
         inkscape:connector-curvature="0" />
    </g>
  </g>
</svg>
