<?xml version="1.0" encoding="UTF-8" standalone="no"?>
<svg
   xmlns:dc="http://purl.org/dc/elements/1.1/"
   xmlns:cc="http://creativecommons.org/ns#"
   xmlns:rdf="http://www.w3.org/1999/02/22-rdf-syntax-ns#"
   xmlns:svg="http://www.w3.org/2000/svg"
   xmlns="http://www.w3.org/2000/svg"
   xmlns:sodipodi="http://sodipodi.sourceforge.net/DTD/sodipodi-0.dtd"
   xmlns:inkscape="http://www.inkscape.org/namespaces/inkscape"
   width="32"
   viewBox="0 0 32 32"
   height="32"
   id="svg2"
   version="1.1"
   inkscape:version="0.91 r13725"
   sodipodi:docname="spreadsheet.svg">
  <metadata
     id="metadata18">
    <rdf:RDF>
      <cc:Work
         rdf:about="">
        <dc:format>image/svg+xml</dc:format>
        <dc:type
           rdf:resource="http://purl.org/dc/dcmitype/StillImage" />
        <dc:title></dc:title>
      </cc:Work>
    </rdf:RDF>
  </metadata>
  <defs
     id="defs16" />
  <sodipodi:namedview
     pagecolor="#ffffff"
     bordercolor="#666666"
     borderopacity="1"
     objecttolerance="10"
     gridtolerance="10"
     guidetolerance="10"
     inkscape:pageopacity="0"
     inkscape:pageshadow="2"
     inkscape:window-width="2560"
     inkscape:window-height="1588"
     id="namedview14"
     showgrid="false"
     inkscape:zoom="9.8333333"
     inkscape:cx="-13.791151"
     inkscape:cy="15.010148"
     inkscape:window-x="0"
     inkscape:window-y="60"
     inkscape:window-maximized="1"
     inkscape:current-layer="g3337"
     fit-margin-top="0"
     fit-margin-left="0"
     fit-margin-right="0"
     fit-margin-bottom="0" />
  <g
     id="g3337"
     transform="matrix(1.3888889,0,0,1.3478261,-8.3333334,-28.652175)">
    <path
       id="path4"
       style="fill:#0f9d58;fill-opacity:1"
       d="M 6,21.258065 6,45 l 23.04,0 0,-23.741935 z"
       inkscape:connector-curvature="0"
       sodipodi:nodetypes="ccccc" />
    <g
       id="g10"
       style="fill:#ffffff"
       transform="matrix(-0.18,0,0,0.18701398,40.2054,44.688367)">
      <path
         id="path12"
         style="color:#000000"
         d="m 76.03,-105.45 c 0,30.716 0,60.64 0,87.28 35.1,0 69.64,0 100,0 0,-30.716 0,-60.64 0,-87.28 -34.713,0 -70.24,0 -100,0 z m 10,8.728 45,0 0,17.455 -45,0 z m 55,0 25,0 0,17.455 -25,0 z m -55,26.18 45,0 0,17.455 -45,0 z m 55,0 25,0 0,17.455 -25,0 z m -55,26.18 45,0 0,17.455 -45,0 z m 55,0 25,0 0,17.455 -25,0 z"
         inkscape:connector-curvature="0" />
    </g>
  </g>
</svg>
